<?xml version="1.0" encoding="UTF-8" standalone="no"?>
<!-- Created with Inkscape (http://www.inkscape.org/) -->

<svg
   width="25.014494mm"
   height="23.622597mm"
   viewBox="0 0 25.014494 23.622597"
   version="1.1"
   id="svg5"
   xml:space="preserve"
   inkscape:version="1.2.1 (9c6d41e410, 2022-07-14)"
   sodipodi:docname="logo.svg"
   xmlns:inkscape="http://www.inkscape.org/namespaces/inkscape"
   xmlns:sodipodi="http://sodipodi.sourceforge.net/DTD/sodipodi-0.dtd"
   xmlns="http://www.w3.org/2000/svg"
   xmlns:svg="http://www.w3.org/2000/svg"><sodipodi:namedview
     id="namedview7"
     pagecolor="#ffffff"
     bordercolor="#000000"
     borderopacity="0.25"
     inkscape:showpageshadow="2"
     inkscape:pageopacity="0.0"
     inkscape:pagecheckerboard="0"
     inkscape:deskcolor="#d1d1d1"
     inkscape:document-units="mm"
     showgrid="false"
     inkscape:zoom="15.009091"
     inkscape:cx="55"
     inkscape:cy="43.573592"
     inkscape:window-width="3840"
     inkscape:window-height="2089"
     inkscape:window-x="-8"
     inkscape:window-y="897"
     inkscape:window-maximized="1"
     inkscape:current-layer="g443" /><defs
     id="defs2" /><g
     inkscape:label="Layer 1"
     inkscape:groupmode="layer"
     id="layer1"
     transform="translate(-92.14019,-90.643831)"><g
       id="g361"
       transform="matrix(0.26458333,0,0,0.26458333,91.41827,89.225828)"
       style="fill:#502d16"><g
         transform="translate(0,-952.36216)"
         id="g343"
         style="fill:#502d16"><path
           style="opacity:1;fill:#502d16;fill-opacity:1;stroke:none;stroke-width:5;stroke-miterlimit:4;stroke-dasharray:none;stroke-opacity:1"
           d="m 50,957.72154 c -26.10761,-2.2e-4 -47.271785,15.07158 -47.2714842,33.66406 0.025378,12.8733 10.3571112,24.6079 26.6171872,30.2324 -3.716203,-5.2548 -7.156272,-11.1801 -7.15625,-16.4629 5e-6,-1.0439 0.09533,-2.0694 0.261719,-3.0781 l 10.21289,-1.8144 1.232422,-6.4688 c 11.050261,2.15782 21.59825,2.17933 31.667969,-0.0117 l 1.234375,6.4805 10.761719,1.9121 c 0.156005,0.9773 0.246089,1.9701 0.246094,2.9804 2.5e-5,5.2902 -3.445795,11.2241 -7.167969,16.4844 16.276133,-5.6246 26.616026,-17.3702 26.632812,-30.25388 C 97.271786,972.79312 76.107608,957.72132 50,957.72154 Z"
           id="path337" /><path
           d="m 50.002136,980.48524 c -14.929552,0 -29.741743,12.74943 -29.741802,28.47426 -2.9e-5,7.8621 5.734461,16.9917 10.626356,24.1564 4.891899,7.1647 4.29272,13.8879 19.115446,13.8879 16.422281,0 14.21927,-6.7232 19.111158,-13.8879 4.891911,-7.1647 10.626391,-16.2943 10.62637,-24.1564 -6.6e-5,-15.72483 -14.807984,-28.47426 -29.737528,-28.47426 z m 0,2.89539 c 13.600555,0 22.730184,11.60922 22.730228,25.93417 4.3e-5,7.1621 -8.647674,15.7246 -13.104109,22.2516 -2.292171,3.357 0.922678,10.1251 -9.626119,10.1251 -10.990337,0 -6.918,-6.5045 -10.567436,-10.1539 -4.456434,-6.5269 -12.16711,-15.0607 -12.167083,-22.2228 5.4e-5,-14.32495 9.133957,-25.93417 22.734519,-25.93417 z"
           style="opacity:1;fill:#502d16;fill-opacity:1;stroke:none;stroke-width:5;stroke-miterlimit:4;stroke-dasharray:none;stroke-opacity:1"
           id="path339" /><path
           style="opacity:1;fill:#502d16;fill-opacity:1;stroke:none;stroke-width:5;stroke-miterlimit:4;stroke-dasharray:none;stroke-opacity:1"
           d="m 50.144771,1029.0178 c -3.068746,0 -4.589255,0.8683 -6.340737,1.3292 -1.788711,0.4707 -3.214089,2.1845 -3.253367,3.8949 -0.0072,0.4695 0.982663,2.6482 1.136923,3.1087 1.087926,-4.0602 1.416824,-4.8988 3.561563,-4.8988 2.094448,0 3.376302,-0.9261 4.831223,-0.9261 1.380339,0 2.687081,1.1279 4.817198,1.1279 2.317314,0 2.645247,0.9579 3.239657,4.7119 0.1757,-0.4541 1.30167,-2.2325 1.315779,-2.7028 0.03969,-1.7104 -1.432489,-3.6142 -3.298769,-4.1053 -1.726093,-0.4543 -3.270798,-1.5396 -6.00947,-1.5396 z"
           id="path341" /></g></g><g
       id="g443"
       transform="matrix(0.79864055,0,0,0.62482284,46.815422,64.512804)"
       style="fill:#000000"><g
         id="g209"
         transform="matrix(0.26458333,0,0,0.26458333,59.183904,53.138393)"
         style="fill:#000000"><path
           d="m 93.3,42.7 h -2.5 v -1.4 c 0,-6.6 -4,-11.9 -9,-11.9 H 18.2 c -5,0 -9,5.4 -9,11.9 v 1.4 H 6.7 C 5.8,42.7 5,43.4 5,44.4 v 10 c 0,0.9 0.7,1.7 1.7,1.7 h 2.5 v 2.6 c 0,6.6 4,11.9 9,11.9 h 20.1 c 2.8,0 5.6,-1.8 7.2,-4.8 l 2.8,-5 c 0.9,-1.5 2.5,-1.5 3.4,0 l 2.8,5 c 1.7,3 4.4,4.8 7.2,4.8 h 20.1 c 5,0 9,-5.4 9,-11.9 v -2.6 h 2.5 c 0.9,0 1.7,-0.7 1.7,-1.7 v -10 c 0,-0.9 -0.7,-1.7 -1.7,-1.7 z m -85,10 V 46 h 0.8 v 6.7 z m 79.2,-7.6 v 13.6 c 0,4.7 -2.6,8.6 -5.7,8.6 H 61.7 c -1.7,0 -3.2,-1.1 -4.3,-3.1 l -2.8,-5 c -1,-1.8 -2.7,-2.9 -4.6,-2.9 -1.9,0 -3.6,1.1 -4.6,2.9 l -2.8,5 c -1.1,2 -2.7,3.1 -4.3,3.1 H 18.2 c -3.1,0 -5.7,-3.9 -5.7,-8.6 V 45.1 c 0.1,-0.2 0,-1.3 0,-1.3 0,0 0.1,0.2 0,0 v -2.4 c 0,-4.7 2.6,-8.6 5.7,-8.6 h 63.6 c 3.1,0 5.7,3.9 5.7,8.6 v 2.4 m 4.2,8.9 H 90.9 V 46 h 0.8 z"
           id="path194"
           style="fill:#000000" /></g><path
         style="fill:#000000;stroke-width:0.376895;stroke-linecap:round"
         d="m 239.8128,267.23087 c -0.68791,-0.41944 -1.66541,-1.59998 -2.26137,-2.73108 l -1.04969,-1.99229 -0.12047,-10.64901 c -0.1006,-8.89244 -0.0212,-10.99038 0.48116,-12.71853 0.73536,-2.52955 2.44948,-4.56742 4.29123,-5.10171 0.93761,-0.272 11.62302,-0.36389 33.41449,-0.28733 l 32.03609,0.11255 1.19256,0.85064 c 0.65591,0.46786 1.58873,1.65508 2.07293,2.63827 0.86609,1.75864 0.88036,1.98012 0.88036,13.65982 v 11.8722 l -0.94224,1.68144 c -0.51823,0.92479 -1.52889,2.07659 -2.2459,2.55956 -1.30251,0.87733 -1.31363,0.87801 -12.50197,0.76837 l -11.1983,-0.10973 -0.96584,-0.9079 c -0.53121,-0.49934 -1.96748,-2.62496 -3.19171,-4.7236 -2.61678,-4.48585 -3.74692,-5.34338 -6.61587,-5.02 -2.26807,0.25564 -3.32792,1.25302 -5.6251,5.29352 -3.38302,5.95036 -2.25484,5.54672 -15.49836,5.54502 -10.20154,-10e-4 -11.02215,-0.0513 -12.152,-0.74021 z"
         id="path436"
         transform="scale(0.26458333)" /></g></g></svg>
