<?xml version="1.0" standalone="no"?>
<!DOCTYPE svg PUBLIC "-//W3C//DTD SVG 20010904//EN"
 "http://www.w3.org/TR/2001/REC-SVG-20010904/DTD/svg10.dtd">
<svg version="1.0" xmlns="http://www.w3.org/2000/svg"
 width="512.000000pt" height="512.000000pt" viewBox="0 0 512.000000 512.000000"
 preserveAspectRatio="xMidYMid meet">
<metadata>
Created by potrace 1.14, written by Peter Selinger 2001-2017
</metadata>
<g transform="translate(0.000000,512.000000) scale(0.100000,-0.100000)"
fill="#000000" stroke="none">
<path d="M2558 4598 c-2 -7 -4 -320 -3 -695 0 -376 -3 -683 -7 -683 -4 0 -8
-277 -8 -615 0 -338 3 -615 8 -615 4 0 7 -332 7 -737 l0 -738 1028 -3 1027 -2
0 2050 0 2050 -1024 0 c-810 0 -1025 -3 -1028 -12z"/>
<path d="M515 3581 c-3 -2 -5 -360 -5 -796 l0 -791 55 0 55 0 0 35 c1 41 1
943 0 1311 l0 245 -50 0 c-28 1 -53 -1 -55 -4z"/>
<path d="M924 3227 c-35 -20 -66 -66 -85 -127 -5 -17 -8 -3 -8 46 l-1 71 -50
0 -50 0 0 -612 0 -611 52 0 52 1 2 380 c1 409 9 482 57 533 27 29 43 28 64 -4
38 -59 42 -115 43 -745 l0 -166 50 0 c37 0 51 4 54 16 7 26 -1 871 -8 931 -27
208 -99 328 -172 287z"/>
<path d="M1365 3232 c-66 -13 -139 -156 -161 -317 -3 -22 -10 -60 -14 -85 -9
-49 -6 -450 4 -490 3 -13 8 -42 11 -63 8 -52 43 -164 65 -207 53 -103 142
-121 199 -41 51 71 90 236 67 280 -39 75 -60 111 -67 111 -3 0 -9 -16 -12 -34
-15 -95 -71 -143 -109 -96 -19 23 -43 97 -53 165 -7 42 -7 242 -1 285 21 152
47 205 98 198 26 -3 53 -50 63 -110 4 -21 10 -38 14 -38 4 0 24 30 44 67 37
65 37 67 27 127 -28 163 -100 264 -175 248z"/>
<path d="M1765 3232 c-27 -6 -61 -38 -89 -86 -25 -43 -65 -174 -72 -236 -3
-19 -8 -60 -13 -90 -9 -59 -7 -413 3 -470 4 -19 8 -46 10 -60 23 -148 91 -286
154 -308 122 -42 221 213 225 582 2 133 -6 286 -17 342 -47 233 -115 344 -201
326z m59 -317 c64 -98 70 -484 8 -603 -15 -30 -25 -37 -47 -37 -64 0 -96 125
-91 355 3 158 16 234 50 284 21 34 58 34 80 1z"/>
<path d="M2193 3228 c-59 -16 -102 -102 -139 -278 -19 -91 -26 -408 -11 -535
10 -93 51 -238 81 -290 57 -96 131 -92 181 10 29 58 35 66 30 38 -2 -10 -6
-63 -9 -118 -6 -113 -8 -125 -30 -178 -38 -88 -128 -67 -187 43 -10 19 -19 28
-19 20 -1 -8 -3 -24 -5 -35 -4 -18 -19 -106 -31 -178 -7 -45 47 -131 108 -171
30 -20 95 -23 126 -7 55 29 99 123 128 273 14 70 17 187 21 739 l5 656 -46 0
c-25 1 -49 -3 -52 -8 -3 -5 -6 -35 -6 -67 l0 -57 -22 46 c-41 89 -70 112 -123
97z m86 -314 c20 -25 33 -62 46 -129 7 -37 7 -241 0 -275 -2 -14 -7 -38 -11
-55 -8 -41 -44 -103 -63 -110 -26 -10 -65 29 -85 86 -15 43 -19 83 -20 199 -1
146 2 177 25 239 26 74 71 92 108 45z"/>
</g>
</svg>
