<?xml version="1.0" standalone="no"?>
<!DOCTYPE svg PUBLIC "-//W3C//DTD SVG 20010904//EN"
 "http://www.w3.org/TR/2001/REC-SVG-20010904/DTD/svg10.dtd">
<svg version="1.0" xmlns="http://www.w3.org/2000/svg"
 width="700.000000pt" height="700.000000pt" viewBox="0 0 700.000000 700.000000"
 preserveAspectRatio="xMidYMid meet">
<metadata>
Created by potrace 1.14, written by Peter Selinger 2001-2017
</metadata>
<g transform="translate(0.000000,700.000000) scale(0.100000,-0.100000)"
fill="#000000" stroke="none">
<path d="M3490 3500 l0 -2800 1405 0 1405 0 0 2800 0 2800 -1405 0 -1405 0 0
-2800z"/>
<path d="M710 3860 l0 -1130 85 0 85 0 0 1130 0 1130 -85 0 -85 0 0 -1130z"/>
<path d="M1343 4451 c-33 -21 -88 -122 -115 -211 -13 -44 -13 -43 -16 73 l-3
117 -79 0 -80 0 0 -850 0 -850 80 0 80 0 0 448 c0 604 17 785 79 854 23 26 30
29 48 20 12 -7 29 -33 39 -59 17 -44 18 -99 22 -655 l3 -608 85 0 84 0 0 528
c0 574 -10 827 -39 967 -40 197 -106 276 -188 226z"/>
<path d="M1926 4455 c-21 -7 -51 -26 -67 -41 -67 -64 -130 -251 -161 -474 -19
-145 -16 -615 5 -761 23 -157 51 -260 92 -346 60 -122 142 -172 229 -139 25
10 59 30 76 46 l30 28 0 219 0 218 -30 -53 c-60 -103 -137 -106 -185 -8 -44
90 -58 189 -59 421 -1 220 10 316 46 412 20 54 66 103 97 103 27 0 70 -37 102
-89 l29 -45 0 215 0 215 -32 32 c-32 30 -94 62 -120 62 -7 -1 -30 -7 -52 -15z"/>
<path d="M2464 4451 c-94 -43 -162 -199 -201 -458 -25 -170 -25 -668 0 -836
43 -287 127 -453 236 -472 147 -25 253 182 291 564 13 135 13 518 -1 657 -20
208 -73 399 -132 476 -62 81 -122 102 -193 69z m94 -394 c12 -13 32 -59 44
-103 20 -73 22 -101 22 -374 0 -244 -2 -308 -17 -370 -23 -103 -66 -158 -104
-134 -64 40 -86 161 -87 484 -1 312 17 444 69 496 30 30 46 30 73 1z"/>
<path d="M3045 4433 c-38 -38 -72 -117 -100 -237 -41 -174 -50 -281 -50 -601
0 -320 9 -427 50 -601 50 -213 120 -299 205 -254 28 15 69 89 96 173 l23 72 0
-135 c1 -215 -24 -341 -79 -400 -58 -62 -142 -30 -212 79 l-28 45 0 -211 0
-211 41 -36 c53 -45 97 -59 164 -54 98 8 163 82 215 244 63 197 65 234 65
1224 l0 895 -80 0 -80 0 -3 -110 -3 -110 -23 72 c-27 84 -68 158 -96 173 -34
18 -76 11 -105 -17z m172 -409 c35 -63 53 -210 53 -425 0 -336 -41 -499 -121
-474 -63 20 -93 198 -86 515 4 239 18 334 58 399 28 46 66 41 96 -15z"/>
</g>
</svg>
