<?xml version="1.0" standalone="no"?>
<!DOCTYPE svg PUBLIC "-//W3C//DTD SVG 20010904//EN"
 "http://www.w3.org/TR/2001/REC-SVG-20010904/DTD/svg10.dtd">
<svg version="1.0" xmlns="http://www.w3.org/2000/svg"
 width="760.000000pt" height="760.000000pt" viewBox="0 0 760.000000 760.000000"
 preserveAspectRatio="xMidYMid meet">
<metadata>
Created by potrace 1.14, written by Peter Selinger 2001-2017
</metadata>
<g transform="translate(0.000000,760.000000) scale(0.100000,-0.100000)"
fill="#000000" stroke="none">
<path d="M3508 7385 c-2 -2 -44 -6 -93 -10 -50 -3 -108 -8 -130 -10 -22 -3
-62 -7 -90 -9 -60 -6 -129 -15 -170 -22 -63 -10 -86 -14 -117 -19 -224 -37
-498 -106 -729 -184 -144 -48 -383 -143 -387 -153 -2 -4 -10 -8 -17 -8 -8 0
-87 -37 -177 -83 -178 -91 -206 -106 -226 -124 -7 -7 -18 -13 -23 -13 -16 0
-288 -188 -384 -266 -174 -140 -323 -285 -438 -425 -15 -19 -36 -44 -46 -57
-10 -12 -29 -38 -42 -57 -13 -19 -27 -35 -31 -35 -5 0 -8 -4 -8 -9 0 -12 -61
-105 -72 -109 -4 -2 -8 -8 -8 -13 0 -6 -16 -35 -35 -65 -19 -30 -35 -57 -35
-61 0 -3 -22 -50 -50 -105 -27 -54 -47 -98 -44 -98 4 0 2 -6 -4 -12 -10 -13
-69 -179 -78 -221 -9 -38 -12 -52 -14 -52 -1 0 -3 -13 -5 -29 -2 -16 -7 -36
-11 -45 -7 -17 -7 -17 -18 -100 -4 -30 -10 -63 -13 -75 -12 -49 -10 -376 3
-476 29 -222 110 -476 215 -679 30 -57 59 -111 64 -120 6 -9 21 -34 34 -56 14
-22 27 -42 30 -45 4 -3 12 -17 20 -32 8 -15 21 -36 30 -45 9 -10 28 -34 41
-53 13 -19 29 -40 35 -46 5 -7 26 -31 45 -55 92 -114 350 -369 372 -369 5 0 8
-99 8 -220 0 -295 -2 -292 170 -296 47 -2 91 -3 98 -3 9 -1 10 -6 3 -20 -6
-10 -8 -20 -6 -23 3 -2 7 -52 9 -110 2 -58 10 -116 17 -129 7 -13 12 -26 11
-29 -3 -9 21 -75 41 -110 29 -54 95 -137 129 -162 16 -13 35 -28 41 -33 21
-20 121 -72 157 -83 67 -21 96 -24 268 -26 l173 -3 111 -169 c61 -93 114 -171
119 -172 5 -2 9 -7 9 -12 0 -5 18 -36 40 -69 22 -33 40 -63 40 -67 0 -4 6 -15
14 -23 8 -9 41 -68 74 -131 33 -63 78 -148 101 -189 22 -41 41 -78 41 -82 0
-5 5 -9 10 -9 6 0 9 -3 8 -7 -2 -5 20 -42 47 -83 56 -84 187 -221 256 -267 56
-37 183 -99 224 -109 17 -4 35 -9 40 -13 6 -3 13 -6 18 -7 4 -1 8 -2 10 -4 5
-4 175 -39 222 -45 201 -27 662 -27 825 0 14 2 43 7 65 10 22 4 54 9 70 12 29
5 88 20 170 43 78 23 275 131 275 151 0 5 4 9 10 9 16 0 98 90 144 160 38 57
110 186 111 200 2 16 172 362 204 415 17 28 34 57 38 65 3 8 10 17 13 20 4 3
60 86 125 185 65 99 119 181 121 183 1 2 82 5 181 7 98 2 185 5 193 7 70 18
158 56 207 90 62 44 150 132 159 161 3 9 10 17 16 17 6 0 8 3 5 7 -4 3 -1 13
7 22 7 9 26 52 41 96 23 66 29 101 31 199 2 66 6 121 8 123 2 3 44 6 92 7 123
4 118 3 147 32 l26 25 0 222 1 222 77 70 c83 76 165 156 229 226 61 67 177
209 169 209 -3 0 6 12 20 28 14 15 28 35 31 45 3 9 10 17 15 17 5 0 9 7 9 15
0 8 5 15 10 15 6 0 10 5 10 11 0 6 13 29 28 52 15 23 34 56 42 72 8 17 17 32
20 35 8 8 66 130 93 195 53 129 108 314 122 407 4 24 8 45 10 48 10 17 20 173
19 320 -1 170 -6 236 -24 330 -5 30 -13 69 -16 85 -12 64 -72 258 -99 320 -48
110 -59 134 -76 170 -45 91 -195 335 -218 355 -3 3 -33 38 -65 79 -109 136
-239 269 -392 400 -110 94 -401 301 -424 301 -5 0 -10 5 -10 10 0 6 -5 10 -10
10 -6 0 -34 15 -63 33 -129 81 -478 244 -657 306 -36 13 -74 27 -85 31 -88 37
-479 144 -552 152 -5 0 -18 4 -30 9 -12 4 -43 11 -69 14 -25 3 -49 7 -53 9 -3
2 -28 7 -56 10 -27 4 -57 9 -65 11 -20 5 -107 17 -142 19 -16 0 -28 3 -28 6 0
3 -17 5 -38 6 -38 1 -140 10 -222 20 -50 6 -687 14 -692 9z m-918 -2910 c19
-3 46 -8 60 -12 14 -3 34 -7 45 -9 11 -1 38 -5 60 -8 22 -3 58 -8 80 -11 22
-3 51 -8 65 -12 14 -3 43 -7 65 -9 22 -2 56 -5 75 -8 120 -15 117 -15 329 -31
66 -5 298 -17 316 -16 19 0 90 1 160 0 39 0 70 0 70 1 0 0 68 3 150 6 83 3
166 7 185 9 19 2 75 7 125 10 49 4 92 8 95 10 4 2 40 7 81 11 82 7 114 11 114
14 0 1 11 3 25 5 38 4 102 14 126 19 27 5 93 17 119 21 11 2 20 4 20 5 0 1 9
3 20 4 11 2 32 7 47 10 31 9 36 -3 53 -124 2 -14 8 -46 14 -73 6 -26 14 -64
17 -83 3 -20 8 -45 10 -55 13 -60 27 -131 29 -152 2 -22 22 -36 50 -38 22 -1
45 -4 120 -19 28 -5 64 -12 80 -15 85 -13 140 -26 146 -33 7 -8 29 -94 29
-114 0 -11 -302 -13 -1770 -13 l-1771 0 4 30 c10 68 28 115 45 116 9 0 26 2
37 5 22 5 50 10 105 20 85 14 183 34 186 36 1 2 5 17 8 33 3 17 10 55 16 85
12 65 18 96 24 130 2 14 7 41 11 60 4 19 9 44 11 55 1 11 5 31 8 45 3 14 9 41
12 60 9 47 11 49 37 44 12 -2 38 -7 57 -9z m-545 -885 c-3 -5 -16 -10 -28 -9
-20 1 -20 2 3 9 14 4 26 8 28 9 2 1 0 -3 -3 -9z m39 2 c3 -5 -1 -9 -9 -9 -8 0
-12 4 -9 9 3 4 7 8 9 8 2 0 6 -4 9 -8z m41 -10 c-3 -3 -11 0 -18 7 -9 10 -8
11 6 5 10 -3 15 -9 12 -12z m245 14 c0 -2 -7 -7 -16 -10 -8 -3 -12 -2 -9 4 6
10 25 14 25 6z m1715 -6 c3 -6 -1 -7 -9 -4 -18 7 -21 14 -7 14 6 0 13 -4 16
-10z m260 0 c-3 -5 -12 -10 -18 -10 -7 0 -6 4 3 10 19 12 23 12 15 0z m40 0
c-3 -5 -12 -10 -18 -10 -7 0 -6 4 3 10 19 12 23 12 15 0z m40 0 c-3 -5 -12
-10 -18 -10 -7 0 -6 4 3 10 19 12 23 12 15 0z m40 0 c-3 -5 -12 -10 -18 -10
-7 0 -6 4 3 10 19 12 23 12 15 0z m60 0 c3 -5 1 -10 -4 -10 -6 0 -11 5 -11 10
0 6 2 10 4 10 3 0 8 -4 11 -10z m39 2 c3 -5 -1 -9 -9 -9 -8 0 -12 4 -9 9 3 4
7 8 9 8 2 0 6 -4 9 -8z m121 -2 c3 -5 1 -10 -4 -10 -6 0 -11 5 -11 10 0 6 2
10 4 10 3 0 8 -4 11 -10z m40 -8 c-3 -3 -11 0 -18 7 -9 10 -8 11 6 5 10 -3 15
-9 12 -12z m59 7 c3 -3 -4 -5 -14 -6 -11 -1 -22 2 -24 6 -5 8 30 8 38 0z m60
-1 c-2 -3 -13 -6 -24 -5 -24 2 -18 13 9 13 11 0 18 -4 15 -8z m81 2 c-3 -5
-21 -9 -38 -9 l-32 2 35 7 c19 4 36 8 38 9 2 0 0 -3 -3 -9z m50 0 c-3 -5 -14
-10 -23 -9 -14 0 -13 2 3 9 27 11 27 11 20 0z m85 -6 c0 -2 -11 -4 -25 -4 -14
0 -25 4 -25 9 0 4 11 6 25 3 14 -2 25 -6 25 -8z m25 6 c3 -5 1 -10 -4 -10 -6
0 -11 5 -11 10 0 6 2 10 4 10 3 0 8 -4 11 -10z m60 0 c3 -5 1 -10 -4 -10 -6 0
-11 5 -11 10 0 6 2 10 4 10 3 0 8 -4 11 -10z m88 -2 c-2 -5 -17 -8 -33 -8 -16
0 -31 3 -33 8 -3 4 12 7 33 7 21 0 36 -3 33 -7z m197 -2 c19 -1 -13 -3 -72 -4
-60 -1 -108 1 -108 6 0 6 96 6 180 -2z m125 -1 c6 -2 -11 -4 -37 -4 -27 -1
-48 3 -48 7 0 7 62 5 85 -3z m45 -1 c0 -2 -7 -4 -15 -4 -8 0 -15 4 -15 10 0 5
7 7 15 4 8 -4 15 -8 15 -10z m-4446 -839 c15 -11 20 -28 20 -77 2 -63 -5 -78
-34 -78 -13 0 -16 15 -16 85 -1 47 2 85 5 85 3 0 15 -7 25 -15z m5323 -72 c-2
-75 -3 -78 -27 -80 -25 -1 -25 0 -24 65 2 85 1 82 19 82 8 0 15 5 15 11 0 5 4
8 9 5 5 -4 8 -41 8 -83z m-5068 -290 c1 -114 -2 -204 -6 -199 -4 4 -9 94 -9
199 -2 172 0 207 10 207 2 0 4 -93 5 -207z m4796 20 c-2 -104 -5 -197 -8 -208
-3 -11 -6 -26 -6 -34 -1 -8 -4 -12 -7 -9 -7 8 -8 177 -1 184 3 3 2 18 -2 32
-5 15 -5 36 -1 47 4 11 5 24 2 29 -5 8 -5 63 0 116 1 12 15 29 24 30 1 0 0
-84 -1 -187z m-2320 -1 c-3 -3 -11 0 -18 7 -9 10 -8 11 6 5 10 -3 15 -9 12
-12z m84 -18 c8 -2 12 -7 9 -9 -5 -6 -78 22 -78 30 0 2 12 0 28 -6 15 -5 33
-12 41 -15z m-329 -8 c0 -2 -7 -7 -16 -10 -8 -3 -12 -2 -9 4 6 10 25 14 25 6z
m-70 -40 c0 -2 -8 -10 -17 -17 -16 -13 -17 -12 -4 4 13 16 21 21 21 13z m-76
-88 c-10 -13 -21 -25 -25 -28 -3 -3 -15 -22 -28 -42 -12 -21 -27 -38 -32 -38
-5 0 -9 -5 -9 -11 0 -16 -86 -132 -128 -173 -38 -38 -118 -82 -162 -91 -40 -8
-239 -9 -247 -2 -3 4 27 7 68 8 41 0 83 2 94 4 11 2 40 7 65 10 59 9 128 39
164 73 26 24 116 141 156 202 13 20 40 55 75 97 5 7 14 12 19 13 5 0 1 -10
-10 -22z m697 -95 c40 -54 112 -137 159 -184 68 -68 79 -84 53 -71 -18 9 -33
19 -33 24 0 4 -4 8 -10 8 -12 0 -66 55 -88 90 -9 14 -31 43 -49 66 -18 23 -33
46 -33 52 0 6 -4 12 -8 14 -5 2 -26 27 -46 57 -61 86 -25 50 55 -56z m-353 81
c32 -6 73 -47 132 -133 23 -35 49 -71 56 -80 7 -9 33 -44 58 -77 66 -88 137
-149 224 -191 102 -49 132 -55 298 -56 l141 -2 -16 -25 c-9 -14 -42 -60 -73
-102 -32 -42 -58 -82 -58 -87 0 -6 -4 -11 -9 -11 -6 0 -23 -27 -39 -61 l-29
-61 -21 34 c-39 62 -155 145 -217 154 -15 2 -95 31 -139 49 -22 9 -47 19 -55
21 -9 2 -47 13 -86 25 -56 17 -97 21 -200 21 -140 0 -234 -15 -365 -59 -41
-14 -79 -26 -85 -27 -30 -6 -116 -39 -121 -47 -3 -5 -9 -7 -13 -4 -5 2 -33
-19 -62 -49 -64 -62 -69 -69 -93 -119 l-18 -39 -21 40 c-21 37 -58 91 -82 116
-6 6 -31 40 -55 76 -25 36 -60 84 -79 108 -29 36 -31 42 -15 43 11 0 91 2 179
4 88 1 174 6 190 9 61 13 167 59 185 81 7 8 18 15 24 15 24 0 111 99 217 246
59 82 116 157 126 166 21 18 74 37 86 31 4 -2 20 -7 35 -9z m-2371 -173 c114
-159 173 -187 397 -190 33 -1 57 -4 53 -7 -7 -7 -153 -7 -208 0 -95 12 -208
101 -262 206 -27 52 -22 49 20 -9z m4677 -8 c-15 -26 -49 -68 -74 -93 -82 -79
-152 -102 -303 -102 -93 0 -98 12 -6 13 112 2 120 3 178 24 61 23 155 103 198
170 37 58 42 50 7 -12z m-1257 -186 c6 -7 -79 -9 -267 -7 -58 1 -113 1 -122 1
-10 0 -20 4 -22 8 -6 9 401 7 411 -2z m-2183 -8 c-4 -7 -44 0 -44 7 0 2 11 3
24 2 14 -1 23 -5 20 -9z m60 0 c-4 -7 -44 0 -44 7 0 2 11 3 24 2 14 -1 23 -5
20 -9z m66 2 c0 -4 -11 -6 -25 -3 -14 2 -25 6 -25 8 0 2 11 4 25 4 14 0 25 -4
25 -9z m1040 -417 c19 -3 49 -12 65 -19 71 -30 176 -56 245 -60 97 -5 116 -10
156 -37 26 -18 65 -78 70 -108 0 -3 3 -12 6 -20 14 -35 31 -139 31 -190 1 -38
-6 -69 -21 -100 -29 -59 -90 -134 -127 -156 -16 -9 -32 -20 -35 -23 -27 -31
-208 -81 -320 -87 -25 -1 -46 -3 -47 -4 -14 -9 -265 3 -345 16 -21 3 -41 6
-45 6 -5 0 -19 5 -33 10 -14 5 -34 12 -45 14 -80 15 -201 112 -244 194 -42 81
-50 112 -37 151 13 37 14 42 22 79 10 46 66 185 83 204 41 47 70 58 174 67
109 9 113 10 197 34 92 28 164 42 190 38 14 -1 41 -6 60 -9z"/>
</g>
</svg>
